<svg width="3024" height="3148" viewBox="0 0 3024 3148" fill="none" xmlns="http://www.w3.org/2000/svg">
<path fill-rule="evenodd" clip-rule="evenodd" d="M3019.12 1555.98C3022.53 1554.64 3023.7 1551.16 3022.63 1547.66L2938.53 1272.65C2937.34 1268.78 2933.87 1266.44 2930.09 1267.87C2837.94 1302.78 1757.19 1712.72 1646.11 1779.87C1530.09 1850.01 1478.52 1881.18 1530.09 2017.56C1580.35 2150.49 2432.03 3097.78 2475.17 3145.71C2476.5 3147.19 2478 3147.6 2479.99 3147.6H2893.31C2899.28 3147.6 2902.51 3140.59 2898.63 3136.05L1943.62 2018.12C1943.3 2017.75 1943.03 2017.36 1942.82 2016.93C1941.14 2013.52 1933.9 1997.24 1943.15 1986.39C1953.08 1974.72 2937.31 1588.1 3019.12 1555.98Z" fill="url(#paint0_radial_0_1)"/>
<path fill-rule="evenodd" clip-rule="evenodd" d="M981.632 1953.01C984.781 1954.28 986.557 1957.64 985.842 1960.96L756.844 3026.12C755.907 3030.48 759.229 3034.59 763.687 3034.59H1102.18C1105.44 3034.59 1108.27 3032.35 1109 3029.18L1343.64 2017.14C1344.14 2014.96 1343.57 2012.66 1342.1 2010.97L1020.68 1640.87C1019.95 1640.02 1019.02 1639.37 1017.99 1638.96L89.232 1268.37C85.3908 1266.83 81.0651 1268.95 79.9143 1272.92L0.27818 1547.8C-0.719562 1551.24 1.04629 1554.88 4.36843 1556.23L981.632 1953.01Z" fill="url(#paint1_radial_0_1)"/>
<path d="M2312.52 642.602C2312.52 1166.6 1870.52 1364.6 1649.52 1398.1L1488.02 1143.6C2045.52 1143.6 2021.52 711.102 2021.52 642.602C2021.52 574.101 1936.52 274.602 1488.02 274.602C1039.52 274.602 974.522 666.602 974.522 743.602C974.522 805.202 1036.52 887.602 1067.52 921.102L1512.02 1446.6L1358.52 1770.1C1232.02 1627.27 948.222 1302 825.022 1143.6C701.822 985.202 658.022 810.935 651.522 743.602C651.522 161.602 1209.19 5.43484 1488.02 0.101476C1762.86 -4.06519 2312.52 118.602 2312.52 642.602Z" fill="url(#paint2_linear_0_1)"/>
<defs>
<radialGradient id="paint0_radial_0_1" cx="0" cy="0" r="1" gradientUnits="userSpaceOnUse" gradientTransform="translate(733.522 1078.43) rotate(44.1933) scale(3113.7 3047.86)">
<stop stop-color="#0037FF"/>
<stop offset="1" stop-color="#00043C"/>
</radialGradient>
<radialGradient id="paint1_radial_0_1" cx="0" cy="0" r="1" gradientUnits="userSpaceOnUse" gradientTransform="translate(733.522 1078.43) rotate(44.1933) scale(3113.7 3047.86)">
<stop stop-color="#0037FF"/>
<stop offset="1" stop-color="#00043C"/>
</radialGradient>
<linearGradient id="paint2_linear_0_1" x1="1482.02" y1="0" x2="1482.02" y2="1770.1" gradientUnits="userSpaceOnUse">
<stop offset="0.0569301" stop-color="#383CA9"/>
<stop offset="1" stop-color="#9CA2C6"/>
</linearGradient>
</defs>
</svg>
